<svg width="23" height="28" viewBox="0 0 23 28" fill="none" xmlns="http://www.w3.org/2000/svg">
<path d="M16.5274 4.79925C16.4522 4.7505 16.387 4.6985 16.3185 4.64758C16.1604 3.9835 15.8254 3.37467 15.3058 2.86117C14.1073 1.67708 12.0344 1 9.61539 1C8.04327 1 6.15716 2.01508 4.44242 3.782C2.92448 5.34742 1.3424 7.78167 1.40763 9.95917C1.30703 10.321 0.981988 11.6806 1.00078 14.0043C1.01294 15.4235 2.69673 18.4178 3.54249 19.3051C3.73265 20.2237 4.28986 22.1629 5.00184 23.0773L5.15331 23.2744C5.9272 24.2917 7.98136 27 11.0062 27C14.031 27 16.0863 24.2928 16.8591 23.2744L17.0094 23.0773C17.6264 22.2875 18.387 20.4534 18.4909 19.2509C19.4959 18.1178 20.1426 16.7733 20.6567 15.6803C20.8579 15.2545 21.0426 14.8591 21.2294 14.5222C23.0923 11.1693 21.5976 8.0785 16.5274 4.79925ZM3.62762 17.5848C2.9289 16.4668 2.11409 14.7941 2.10746 13.9946C2.09088 12.0229 2.33631 10.8096 2.44245 10.3752C3.27826 9.88983 6.5607 7.98967 7.4153 7.59858C9.99349 6.41992 11.9691 5.66267 12.8359 5.52183C13.1377 5.47308 13.3412 5.19358 13.2914 4.89892C13.2417 4.60317 12.9564 4.40058 12.6557 4.45258C11.339 4.66708 8.51424 5.901 6.94765 6.61708C6.21023 6.954 3.91838 8.26483 2.6127 9.01883C2.89794 7.62567 3.85094 5.96492 5.24396 4.52842C6.72985 2.99767 8.36388 2.08333 9.61539 2.08333C11.7104 2.08333 13.5446 2.65858 14.5208 3.62167C15.0437 4.13733 15.308 4.75375 15.3179 5.4525C15.3179 5.47308 15.3234 5.49258 15.3234 5.51317V5.51533C15.3212 5.81975 15.2825 6.10575 15.2295 6.38525C15.2184 6.44267 15.2096 6.50225 15.1963 6.55858C15.1377 6.811 15.057 7.05258 14.9608 7.2855C14.931 7.357 14.8978 7.42633 14.8646 7.49675C14.7618 7.71342 14.649 7.92467 14.5164 8.12508C14.4766 8.18575 14.4313 8.24317 14.3881 8.30275C14.2676 8.47175 14.1383 8.63533 13.999 8.7935C13.9492 8.85092 13.9006 8.90942 13.8486 8.96575C13.6761 9.151 13.4904 9.32867 13.2958 9.50092C13.2394 9.55075 13.1831 9.60058 13.1256 9.64933C12.9177 9.82483 12.7032 9.996 12.4777 10.1607C12.439 10.1888 12.3992 10.2159 12.3605 10.2441C11.8542 10.6059 11.3158 10.9439 10.7641 11.2657C10.7386 11.2797 10.7143 11.296 10.6889 11.3101C10.386 11.4867 10.0864 11.6535 9.7956 11.8171C9.75469 11.8398 9.71268 11.8637 9.67288 11.8853C9.56785 11.9438 9.46945 11.9991 9.36885 12.0565C9.11899 12.1963 8.88129 12.3317 8.69334 12.4454C8.55957 12.5039 5.39874 13.8993 4.26443 15.8536C3.91396 16.4581 3.72823 17.0648 3.62762 17.5848ZM16.1316 22.4186L15.9713 22.6277C15.2239 23.6113 13.4749 25.9167 11.0062 25.9167C8.53746 25.9167 6.78844 23.6124 6.04108 22.6277L5.88077 22.4186C5.34567 21.7328 4.79731 19.9919 4.60715 19.0028C4.60826 18.9779 4.60826 18.9443 4.60936 18.914C4.60936 18.8945 4.61158 18.888 4.61158 18.8663C4.61932 18.4276 4.63922 17.4028 5.22738 16.3898C6.18149 14.7453 9.11567 13.4497 9.20522 13.4053C9.52031 13.2189 9.86304 13.0283 10.2212 12.8278C10.4755 12.6859 10.7398 12.5375 11.0073 12.3848C11.2704 12.5343 11.528 12.6794 11.7801 12.8192C12.1416 13.0218 12.4888 13.2157 12.8083 13.4042C12.8271 13.415 12.8459 13.4248 12.8669 13.4334L12.868 13.4345C12.8901 13.4453 14.5462 14.1766 15.7756 15.235C16.1858 15.5882 16.5473 15.9771 16.7861 16.3888C16.9332 16.6412 17.0448 16.8958 17.1288 17.1406C17.298 17.6313 17.3599 18.0874 17.3853 18.4341C17.3975 18.6074 17.4008 18.7537 17.403 18.8631C17.4052 18.9617 17.4074 19.0353 17.4097 19.0375C17.4097 19.8359 16.7176 21.6689 16.1316 22.4186ZM20.2598 14.0054C20.063 14.3608 19.8662 14.7768 19.654 15.2274C19.2947 15.989 18.9033 16.8199 18.3892 17.5988C18.3748 17.523 18.3538 17.4407 18.335 17.3616C18.3229 17.3107 18.314 17.263 18.3007 17.211C18.2731 17.107 18.2388 16.9987 18.2035 16.8903C18.1913 16.8513 18.1813 16.8145 18.1681 16.7744C18.0642 16.4743 17.9271 16.1623 17.7469 15.8514C17.6142 15.6228 17.4506 15.4018 17.2704 15.1895C17.2648 15.183 17.2604 15.1754 17.2538 15.1689C17.0758 14.9609 16.8779 14.7627 16.67 14.5742C16.659 14.5644 16.649 14.5536 16.638 14.5438C16.4301 14.3564 16.2123 14.1798 15.9901 14.013C15.9791 14.0043 15.968 13.9957 15.9569 13.9881C15.7314 13.8202 15.5059 13.6642 15.2836 13.5201L15.266 13.5082C15.0382 13.3608 14.8193 13.2287 14.6137 13.1106L14.6093 13.1084C14.4025 12.9903 14.2135 12.8874 14.0465 12.8007C14.0366 12.7953 14.0288 12.791 14.02 12.7867C13.8785 12.713 13.7557 12.6523 13.6562 12.6047C13.5136 12.5353 13.3998 12.4823 13.3489 12.4595C13.0305 12.2721 12.6856 12.0793 12.3262 11.8788C12.2478 11.8344 12.1637 11.7857 12.0841 11.7413C12.0874 11.7391 12.0908 11.7369 12.0941 11.7348C12.6037 11.4141 13.109 11.0653 13.5877 10.6818C13.6032 10.6688 13.6187 10.6568 13.6341 10.6449C14.0907 10.2755 14.5175 9.8725 14.8967 9.43158C14.9254 9.398 14.9553 9.36333 14.9829 9.32867C15.3378 8.89967 15.6441 8.43492 15.8818 7.92683C15.9094 7.86833 15.9337 7.80875 15.9592 7.75025C16.052 7.53358 16.1327 7.30933 16.1991 7.0775C16.2123 7.03308 16.2289 6.98975 16.24 6.94425C16.3096 6.67558 16.3583 6.39392 16.3881 6.1025C16.3903 6.0765 16.3992 6.05375 16.4014 6.02667C21.728 9.632 21.2736 12.1778 20.2598 14.0054Z" fill="black" stroke="black"/>
</svg>
