<svg width="19" height="20" viewBox="0 0 19 20" fill="none" xmlns="http://www.w3.org/2000/svg">
<path d="M11.9971 17.5V13C11.9971 12.801 11.9181 12.6103 11.7774 12.4696C11.6367 12.329 11.446 12.25 11.2471 12.25H8.24707C8.04816 12.25 7.85739 12.329 7.71674 12.4696C7.57609 12.6103 7.49707 12.801 7.49707 13V17.5C7.49707 17.6989 7.41805 17.8896 7.2774 18.0303C7.13675 18.1709 6.94598 18.25 6.74707 18.25H2.24707C2.04816 18.25 1.85739 18.1709 1.71674 18.0303C1.57609 17.8896 1.49707 17.6989 1.49707 17.5V8.82808C1.49875 8.72429 1.52118 8.62188 1.56304 8.52688C1.6049 8.43189 1.66535 8.34623 1.74082 8.27496L9.24082 1.45933C9.37908 1.33284 9.55968 1.2627 9.74707 1.2627C9.93446 1.2627 10.1151 1.33284 10.2533 1.45933L17.7533 8.27496C17.8288 8.34623 17.8892 8.43189 17.9311 8.52688C17.973 8.62188 17.9954 8.72429 17.9971 8.82808V17.5C17.9971 17.6989 17.9181 17.8896 17.7774 18.0303C17.6367 18.1709 17.446 18.25 17.2471 18.25H12.7471C12.5482 18.25 12.3574 18.1709 12.2167 18.0303C12.0761 17.8896 11.9971 17.6989 11.9971 17.5Z" stroke="#1C1C28" stroke-width="2" stroke-linecap="round" stroke-linejoin="round"/>
</svg>
