<svg width="32" height="32" viewBox="0 0 32 32" fill="none" xmlns="http://www.w3.org/2000/svg">
<path d="M13.2344 7.44688C14.1867 4.88281 17.8133 4.88281 18.7656 7.44688V7.44688C19.2589 8.7754 20.6272 9.56539 22.0244 9.3284V9.3284C24.7211 8.87101 26.5344 12.0118 24.79 14.1185V14.1185C23.8862 15.21 23.8862 16.79 24.79 17.8815V17.8815C26.5344 19.9882 24.7211 23.129 22.0244 22.6716V22.6716C20.6272 22.4346 19.2589 23.2246 18.7656 24.5531V24.5531C17.8133 27.1172 14.1867 27.1172 13.2344 24.5531V24.5531C12.7411 23.2246 11.3728 22.4346 9.97556 22.6716V22.6716C7.27889 23.129 5.46556 19.9882 7.21001 17.8815V17.8815C8.11385 16.79 8.11385 15.21 7.21001 14.1185V14.1185C5.46556 12.0118 7.27889 8.87101 9.97556 9.3284V9.3284C11.3728 9.56539 12.7411 8.7754 13.2344 7.44688V7.44688Z" fill="#C38C6F"/>
<path d="M14.3333 15.5834C14.6218 15.5834 14.9037 15.4979 15.1435 15.3376C15.3834 15.1774 15.5703 14.9496 15.6807 14.6832C15.791 14.4167 15.8199 14.1235 15.7636 13.8406C15.7074 13.5577 15.5685 13.2978 15.3645 13.0939C15.1606 12.8899 14.9007 12.751 14.6178 12.6948C14.335 12.6385 14.0417 12.6674 13.7753 12.7778C13.5088 12.8881 13.281 13.0751 13.1208 13.3149C12.9605 13.5547 12.875 13.8367 12.875 14.1251C12.875 14.5119 13.0286 14.8828 13.3021 15.1563C13.5756 15.4298 13.9466 15.5834 14.3333 15.5834V15.5834ZM14.3333 13.5001C14.4569 13.5001 14.5778 13.5367 14.6806 13.6054C14.7833 13.6741 14.8635 13.7717 14.9108 13.8859C14.9581 14.0001 14.9704 14.1258 14.9463 14.247C14.9222 14.3683 14.8627 14.4796 14.7753 14.567C14.6879 14.6544 14.5765 14.714 14.4553 14.7381C14.334 14.7622 14.2084 14.7498 14.0942 14.7025C13.98 14.6552 13.8823 14.5751 13.8137 14.4723C13.745 14.3695 13.7083 14.2487 13.7083 14.1251C13.7083 13.9593 13.7742 13.8004 13.8914 13.6831C14.0086 13.5659 14.1676 13.5001 14.3333 13.5001V13.5001Z" fill="white"/>
<path d="M17.6667 16.8333C17.3783 16.8333 17.0963 16.9188 16.8565 17.079C16.6167 17.2393 16.4298 17.467 16.3194 17.7335C16.209 18 16.1801 18.2932 16.2364 18.5761C16.2927 18.859 16.4316 19.1188 16.6355 19.3228C16.8395 19.5267 17.0993 19.6656 17.3822 19.7219C17.6651 19.7782 17.9583 19.7493 18.2248 19.6389C18.4913 19.5285 18.719 19.3416 18.8793 19.1018C19.0395 18.862 19.125 18.58 19.125 18.2916C19.125 17.9048 18.9714 17.5339 18.6979 17.2604C18.4244 16.9869 18.0535 16.8333 17.6667 16.8333V16.8333ZM17.6667 18.9166C17.5431 18.9166 17.4223 18.8799 17.3195 18.8113C17.2167 18.7426 17.1366 18.645 17.0893 18.5308C17.042 18.4166 17.0296 18.2909 17.0537 18.1697C17.0778 18.0484 17.1374 17.9371 17.2248 17.8496C17.3122 17.7622 17.4235 17.7027 17.5448 17.6786C17.666 17.6545 17.7917 17.6669 17.9059 17.7142C18.0201 17.7615 18.1177 17.8416 18.1864 17.9444C18.2551 18.0471 18.2917 18.168 18.2917 18.2916C18.2917 18.4573 18.2259 18.6163 18.1086 18.7335C17.9914 18.8507 17.8325 18.9166 17.6667 18.9166Z" fill="white"/>
<path d="M19.225 12.7749C19.1905 12.7404 19.1496 12.713 19.1046 12.6943C19.0595 12.6756 19.0112 12.666 18.9625 12.666C18.9137 12.666 18.8654 12.6756 18.8204 12.6943C18.7753 12.713 18.7344 12.7404 18.7 12.7749L12.775 18.6999C12.7062 18.7701 12.6674 18.8642 12.6666 18.9624C12.6665 19.0358 12.6882 19.1076 12.7289 19.1687C12.7697 19.2298 12.8276 19.2774 12.8955 19.3055C12.9633 19.3337 13.038 19.341 13.11 19.3267C13.182 19.3123 13.2481 19.2769 13.3 19.2249L19.225 13.2999C19.2595 13.2655 19.2869 13.2246 19.3056 13.1795C19.3242 13.1345 19.3339 13.0862 19.3339 13.0374C19.3339 12.9886 19.3242 12.9404 19.3056 12.8953C19.2869 12.8503 19.2595 12.8094 19.225 12.7749V12.7749Z" fill="white"/>
</svg>
