<svg width="16" height="17" viewBox="0 0 16 17" fill="none" xmlns="http://www.w3.org/2000/svg">
<path d="M8 14.75C11.4469 14.75 14.25 11.9469 14.25 8.5C14.25 6.7875 13.5719 5.19062 12.3375 4C12.1375 3.80625 11.8188 3.8125 11.6281 4.0125C11.4344 4.2125 11.4406 4.53125 11.6406 4.72188C12.675 5.72188 13.2438 7.0625 13.2438 8.5C13.2438 11.3906 10.8906 13.7437 8 13.7437C5.10938 13.7437 2.75625 11.3906 2.75625 8.5C2.75625 5.77813 4.84062 3.53125 7.5 3.27813V5.23438C7.5 5.5125 7.725 5.7375 8.00313 5.7375C8.28125 5.7375 8.50625 5.5125 8.50625 5.23438V2.75312C8.50625 2.475 8.28125 2.25 8.00313 2.25C4.55625 2.25 1.75313 5.05312 1.75313 8.5C1.75313 11.9469 4.55313 14.75 8 14.75Z" fill="#858585"/>
<path d="M10.5031 5.55935L7.39374 7.79372C6.97186 8.09685 6.87186 8.68435 7.17499 9.10622C7.47811 9.5281 8.06561 9.6281 8.48749 9.32497C8.57499 9.26247 8.64999 9.18747 8.70624 9.10622L10.9406 5.99685C11.0406 5.85622 11.0094 5.65935 10.8687 5.55935C10.7562 5.4781 10.6094 5.48435 10.5031 5.55935Z" fill="#858585"/>
</svg>
