<svg width="26" height="24" viewBox="0 0 26 24" fill="none" xmlns="http://www.w3.org/2000/svg">
<path d="M1.01256 1.29466L1.01248 1.29476C0.685883 1.68646 0.505756 2.17891 0.50312 2.68822C0.48492 3.02872 0.546503 3.36877 0.682995 3.68151C0.821493 3.99885 1.03315 4.27899 1.30055 4.49938C1.30068 4.49949 1.30082 4.4996 1.30095 4.49972L11.5629 12.9984L11.5629 12.9984L11.5655 13.0005C11.9611 13.3237 12.4568 13.5 12.968 13.5C13.4783 13.5 13.9731 13.3243 14.3684 13.0022L24.6234 4.79809C24.8638 4.61703 25.0646 4.3888 25.2133 4.12731C25.3635 3.86324 25.4572 3.57102 25.4884 3.26899C25.5196 2.96696 25.4877 2.6618 25.3946 2.37272C25.3027 2.0872 25.1532 1.82358 24.9555 1.59791C24.7741 1.37586 24.551 1.19126 24.2988 1.05433C24.0433 0.915618 23.7629 0.828527 23.4737 0.797949C23.1845 0.767372 22.892 0.793895 22.613 0.876031C22.3345 0.958053 22.0748 1.09396 21.8488 1.27609C21.8485 1.27635 21.8482 1.2766 21.8479 1.27686L12.9826 8.36453L4.12778 1.00935L4.12778 1.00935L4.12721 1.00887C3.90378 0.823842 3.64598 0.684576 3.36864 0.598897C3.0913 0.513219 2.79975 0.482774 2.51065 0.509264C2.22154 0.535754 1.94042 0.618673 1.68338 0.753377C1.42633 0.888082 1.19834 1.07197 1.01256 1.29466Z" fill="#6440FE" stroke="#6440FE"/>
<path d="M1.01256 11.2947L1.01248 11.2948C0.685883 11.6865 0.505756 12.1789 0.50312 12.6882C0.48492 13.0287 0.546503 13.3688 0.682995 13.6815C0.821493 13.9988 1.03315 14.279 1.30055 14.4994C1.30068 14.4995 1.30082 14.4996 1.30095 14.4997L11.5629 22.9984L11.5629 22.9984L11.5655 23.0005C11.9611 23.3237 12.4568 23.5 12.968 23.5C13.4783 23.5 13.9731 23.3243 14.3684 23.0022L24.6234 14.7981C24.8638 14.617 25.0646 14.3888 25.2133 14.1273C25.3635 13.8632 25.4572 13.571 25.4884 13.269C25.5196 12.967 25.4877 12.6618 25.3946 12.3727C25.3027 12.0872 25.1532 11.8236 24.9555 11.5979C24.7741 11.3759 24.551 11.1913 24.2988 11.0543C24.0433 10.9156 23.7629 10.8285 23.4737 10.7979C23.1845 10.7674 22.892 10.7939 22.613 10.876C22.3345 10.9581 22.0748 11.094 21.8488 11.2761C21.8485 11.2763 21.8482 11.2766 21.8479 11.2769L12.9826 18.3645L4.12778 11.0093L4.12778 11.0093L4.12721 11.0089C3.90378 10.8238 3.64598 10.6846 3.36864 10.5989C3.0913 10.5132 2.79975 10.4828 2.51065 10.5093C2.22154 10.5358 1.94042 10.6187 1.68338 10.7534C1.42633 10.8881 1.19834 11.072 1.01256 11.2947Z" fill="#6440FE" stroke="#6440FE"/>
</svg>
