<svg width="24" height="24" viewBox="0 0 24 24" fill="none" xmlns="http://www.w3.org/2000/svg">
<g clip-path="url(#clip0_205_20856)">
<path fill-rule="evenodd" clip-rule="evenodd" d="M12 8.25C9.92893 8.25 8.25 9.92893 8.25 12C8.25 14.0711 9.92893 15.75 12 15.75C14.0711 15.75 15.75 14.0711 15.75 12C15.75 9.92893 14.0711 8.25 12 8.25ZM7 12C7 9.23858 9.23858 7 12 7C14.7614 7 17 9.23858 17 12C17 14.7614 14.7614 17 12 17C9.23858 17 7 14.7614 7 12Z" fill="black" stroke="black" stroke-linecap="round" stroke-linejoin="round"/>
<path fill-rule="evenodd" clip-rule="evenodd" d="M10.125 3C9.65286 3 9.20828 3.22229 8.925 3.6L8.025 4.8C7.45844 5.55542 6.56927 6 5.625 6H3.75C2.50736 6 1.5 7.00736 1.5 8.25V17.25C1.5 18.4926 2.50736 19.5 3.75 19.5H20.25C21.4926 19.5 22.5 18.4926 22.5 17.25V8.25C22.5 7.00736 21.4926 6 20.25 6H18.375C17.4307 6 16.5416 5.55542 15.975 4.8L15.075 3.6C14.7917 3.22229 14.3471 3 13.875 3H10.125ZM7.725 2.7C8.29156 1.94458 9.18073 1.5 10.125 1.5H13.875C14.8193 1.5 15.7084 1.94458 16.275 2.7L17.175 3.9C17.4583 4.27771 17.9029 4.5 18.375 4.5H20.25C22.3211 4.5 24 6.17893 24 8.25V17.25C24 19.3211 22.3211 21 20.25 21H3.75C1.67893 21 0 19.3211 0 17.25V8.25C0 6.17893 1.67893 4.5 3.75 4.5H5.625C6.09714 4.5 6.54172 4.27771 6.825 3.9L7.725 2.7Z" fill="black" stroke="black" stroke-linecap="round" stroke-linejoin="round"/>
</g>
<defs>
<clipPath id="clip0_205_20856">
<rect width="24" height="24" fill="white"/>
</clipPath>
</defs>
</svg>
