<svg width="98" height="16" viewBox="0 0 98 16" fill="none" xmlns="http://www.w3.org/2000/svg">
<path d="M4.692 12V10.2H0.432V9.42L4.512 3.6H5.688V9.312H6.936V10.2H5.688V12H4.692ZM1.548 9.312H4.74V4.716L1.548 9.312ZM8.44163 12.06C8.24163 12.06 8.07363 11.996 7.93763 11.868C7.80963 11.732 7.74563 11.568 7.74563 11.376C7.74563 11.184 7.80963 11.024 7.93763 10.896C8.07363 10.76 8.24163 10.692 8.44163 10.692C8.63363 10.692 8.79363 10.76 8.92163 10.896C9.05763 11.024 9.12563 11.184 9.12563 11.376C9.12563 11.568 9.05763 11.732 8.92163 11.868C8.79363 11.996 8.63363 12.06 8.44163 12.06ZM11.0441 12V4.728L9.68813 5.028V4.332L11.3801 3.6H12.0641V12H11.0441Z" fill="#858585"/>
<path d="M23.5 1.5L24.9593 5.99139H29.6819L25.8613 8.76722L27.3206 13.2586L23.5 10.4828L19.6794 13.2586L21.1387 8.76722L17.3181 5.99139H22.0407L23.5 1.5Z" fill="#FFAA06"/>
<path d="M40.5 1.5L41.9593 5.99139H46.6819L42.8613 8.76722L44.3206 13.2586L40.5 10.4828L36.6794 13.2586L38.1387 8.76722L34.3181 5.99139H39.0407L40.5 1.5Z" fill="#FFAA06"/>
<path d="M57.5 1.5L58.9593 5.99139H63.6819L59.8613 8.76722L61.3206 13.2586L57.5 10.4828L53.6794 13.2586L55.1387 8.76722L51.3181 5.99139H56.0407L57.5 1.5Z" fill="#FFAA06"/>
<path d="M74.5 1.5L75.9593 5.99139H80.6819L76.8613 8.76722L78.3206 13.2586L74.5 10.4828L70.6794 13.2586L72.1387 8.76722L68.3181 5.99139H73.0407L74.5 1.5Z" fill="#FFAA06"/>
<path d="M91.5 1.5L92.9593 5.99139H97.6819L93.8613 8.76722L95.3206 13.2586L91.5 10.4828L87.6794 13.2586L89.1387 8.76722L85.3181 5.99139H90.0407L91.5 1.5Z" fill="#858585"/>
</svg>
